<svg width="21" height="25" viewBox="0 0 21 25" fill="none" xmlns="http://www.w3.org/2000/svg">
<path d="M17.6689 13.3369C17.6936 11.4251 18.7203 9.61612 20.3491 8.61476C19.3215 7.14727 17.6005 6.21684 15.8099 6.16081C13.9001 5.96035 12.0486 7.30362 11.0754 7.30362C10.0834 7.30362 8.58495 6.18072 6.97142 6.21392C4.86825 6.28186 2.90757 7.47761 1.88434 9.31634C-0.315213 13.1245 1.32545 18.7213 3.43244 21.7995C4.48661 23.3068 5.71863 24.9906 7.33071 24.9309C8.90822 24.8654 9.49739 23.9249 11.4016 23.9249C13.2881 23.9249 13.8409 24.9309 15.4857 24.8929C17.1784 24.8654 18.2449 23.3789 19.2621 21.8573C20.0195 20.7832 20.6023 19.5962 20.989 18.3401C18.9997 17.4988 17.6712 15.4968 17.6689 13.3369Z" fill="white"/>
<path d="M14.5622 4.13641C15.4851 3.02844 15.9398 1.60432 15.8297 0.166504C14.4197 0.314605 13.1172 0.988526 12.1817 2.05399C11.267 3.095 10.791 4.49406 10.881 5.87692C12.2916 5.89144 13.6783 5.23579 14.5622 4.13641Z" fill="white"/>
</svg>
